<svg width="20" height="20" viewBox="0 0 20 20" fill="none" xmlns="http://www.w3.org/2000/svg">
    <path d="M17.7646 5.95117L17.3533 5.23734C17.0422 4.69748 16.8867 4.42755 16.622 4.31991C16.3574 4.21228 16.058 4.29721 15.4595 4.46708L14.4426 4.7535C14.0605 4.84163 13.6595 4.79163 13.3105 4.61234L13.0298 4.45036C12.7305 4.2587 12.5004 3.97612 12.373 3.64396L12.0947 2.81281C11.9117 2.2628 11.8202 1.98779 11.6024 1.83049C11.3846 1.67319 11.0953 1.67319 10.5166 1.67319H9.58762C9.00904 1.67319 8.71971 1.67319 8.50187 1.83049C8.28408 1.98779 8.19259 2.2628 8.00961 2.81281L7.73131 3.64396C7.60391 3.97612 7.37375 4.2587 7.07451 4.45036L6.79378 4.61234C6.44482 4.79163 6.04386 4.84163 5.66169 4.7535L4.64483 4.46708C4.04621 4.29721 3.74691 4.21228 3.48226 4.31991C3.21761 4.42755 3.06208 4.69748 2.751 5.23734L2.33968 5.95117C2.04809 6.45721 1.90229 6.71024 1.93059 6.97959C1.95888 7.24894 2.15406 7.466 2.54442 7.90011L3.40362 8.86068C3.61362 9.12651 3.76271 9.58984 3.76271 10.0064C3.76271 10.4232 3.61367 10.8863 3.40365 11.1523L2.54442 12.1128C2.15406 12.547 1.95889 12.764 1.93059 13.0334C1.90229 13.3028 2.04809 13.5558 2.33968 14.0618L2.75099 14.7756C3.06206 15.3154 3.21761 15.5854 3.48226 15.693C3.74691 15.8007 4.04622 15.7158 4.64485 15.5458L5.66166 15.2594C6.0439 15.1713 6.44493 15.2213 6.79393 15.4007L7.07462 15.5627C7.3738 15.7543 7.60391 16.0368 7.73129 16.369L8.00961 17.2003C8.19259 17.7503 8.28408 18.0253 8.50187 18.1826C8.71971 18.3398 9.00904 18.3398 9.58762 18.3398H10.5166C11.0953 18.3398 11.3846 18.3398 11.6024 18.1826C11.8202 18.0253 11.9117 17.7503 12.0947 17.2003L12.373 16.369C12.5004 16.0368 12.7305 15.7543 13.0297 15.5627L13.3104 15.4007C13.6594 15.2213 14.0604 15.1713 14.4426 15.2594L15.4595 15.5458C16.058 15.7158 16.3574 15.8007 16.622 15.693C16.8867 15.5854 17.0422 15.3154 17.3533 14.7756L17.7646 14.0618C18.0562 13.5558 18.202 13.3028 18.1737 13.0334C18.1454 12.764 17.9502 12.547 17.5599 12.1128L16.7006 11.1523C16.4906 10.8863 16.3415 10.4232 16.3415 10.0064C16.3415 9.58984 16.4907 9.12651 16.7006 8.86068L17.5599 7.90011C17.9502 7.466 18.1454 7.24894 18.1737 6.97959C18.202 6.71024 18.0562 6.45721 17.7646 5.95117Z" stroke="black" stroke-width="1.5" stroke-linecap="round"/>
    <path d="M12.9329 10C12.9329 11.6108 11.6271 12.9167 10.0163 12.9167C8.40542 12.9167 7.09961 11.6108 7.09961 10C7.09961 8.38918 8.40542 7.08334 10.0163 7.08334C11.6271 7.08334 12.9329 8.38918 12.9329 10Z" stroke="black" stroke-width="1.5"/>
</svg>
