<svg width="20" height="20" viewBox="0 0 20 20" fill="none" xmlns="http://www.w3.org/2000/svg">
    <g clip-path="url(#clip0_124_146)">
        <path d="M10.4167 2.5H9.58335C5.8514 2.5 3.98543 2.5 2.82605 3.65937C1.66669 4.81874 1.66669 6.68472 1.66669 10.4167C1.66669 14.1486 1.66669 16.0146 2.82605 17.174C3.98543 18.3333 5.8514 18.3333 9.58335 18.3333C13.3153 18.3333 15.1813 18.3333 16.3407 17.174C17.5 16.0146 17.5 14.1486 17.5 10.4167V9.58333" stroke="#636363" stroke-width="1.5" stroke-linecap="round"/>
        <path d="M18.3333 4.58335C18.3333 6.19419 17.0275 7.50002 15.4167 7.50002C13.8058 7.50002 12.5 6.19419 12.5 4.58335C12.5 2.97252 13.8058 1.66669 15.4167 1.66669C17.0275 1.66669 18.3333 2.97252 18.3333 4.58335Z" stroke="#636363" stroke-width="1.5"/>
        <path d="M5.83331 9.16669H9.16665" stroke="#636363" stroke-width="1.5" stroke-linecap="round" stroke-linejoin="round"/>
        <path d="M5.83331 13.3333H12.5" stroke="#636363" stroke-width="1.5" stroke-linecap="round" stroke-linejoin="round"/>
    </g>
    <defs>
        <clipPath id="clip0_124_146">
            <rect width="20" height="20" fill="white"/>
        </clipPath>
    </defs>
</svg>
