<svg width="20" height="20" viewBox="0 0 20 20" fill="none" xmlns="http://www.w3.org/2000/svg">
    <path d="M14.1666 15V13.3333" stroke="black" stroke-width="1.5" stroke-linecap="round"/>
    <path d="M10 15V12.5" stroke="black" stroke-width="1.5" stroke-linecap="round"/>
    <path d="M5.83337 15V10.8333" stroke="black" stroke-width="1.5" stroke-linecap="round"/>
    <path d="M5 5.83331C7.66422 8.5569 11.0282 9.2344 14.2844 8.32652M13.0734 7.05942L14.8014 7.90697C15.0063 8.00749 15.0617 8.24022 14.925 8.42681L13.7724 9.99998" stroke="black" stroke-width="1.5" stroke-linecap="round" stroke-linejoin="round"/>
    <path d="M2.08337 9.99998C2.08337 6.26803 2.08337 4.40205 3.24274 3.24268C4.40212 2.08331 6.26809 2.08331 10 2.08331C13.732 2.08331 15.598 2.08331 16.7574 3.24268C17.9167 4.40205 17.9167 6.26803 17.9167 9.99998C17.9167 13.7319 17.9167 15.5979 16.7574 16.7573C15.598 17.9166 13.732 17.9166 10 17.9166C6.26809 17.9166 4.40212 17.9166 3.24274 16.7573C2.08337 15.5979 2.08337 13.7319 2.08337 9.99998Z" stroke="black" stroke-width="1.5" stroke-linejoin="round"/>
</svg>
