<svg width="18" height="18" viewBox="0 0 18 18" fill="none" xmlns="http://www.w3.org/2000/svg">
    <path d="M6.86881 4.28417L6.56682 3.60469C6.36936 3.16041 6.27063 2.93826 6.12298 2.76826C5.93793 2.55521 5.69672 2.39846 5.42688 2.31589C5.21156 2.25 4.96846 2.25 4.48228 2.25C3.77105 2.25 3.41544 2.25 3.11692 2.38672C2.76527 2.54777 2.4477 2.89746 2.32117 3.26295C2.21375 3.57322 2.24452 3.89207 2.30605 4.52978C2.96105 11.3176 6.68248 15.0391 13.4703 15.694C14.108 15.7556 14.4269 15.7864 14.7371 15.679C15.1027 15.5525 15.4523 15.2348 15.6134 14.8832C15.7501 14.5846 15.7501 14.2291 15.7501 13.5178C15.7501 13.0316 15.7501 12.7885 15.6842 12.5732C15.6017 12.3034 15.4449 12.0622 15.2318 11.8771C15.0619 11.7295 14.8397 11.6308 14.3954 11.4333L13.7159 11.1313C13.2348 10.9174 12.9942 10.8106 12.7498 10.7873C12.5158 10.765 12.2799 10.7979 12.0609 10.8832C11.8321 10.9723 11.6299 11.1408 11.2253 11.4778C10.8227 11.8134 10.6214 11.9812 10.3754 12.071C10.1573 12.1507 9.86904 12.1802 9.63939 12.1463C9.38026 12.1082 9.18189 12.0022 8.78506 11.7901C7.55056 11.1304 6.86977 10.4496 6.21002 9.21503C5.99797 8.81828 5.89195 8.61983 5.85377 8.36078C5.81992 8.13105 5.84943 7.84275 5.92909 7.62472C6.01896 7.37871 6.18673 7.17739 6.52226 6.77475C6.85933 6.37026 7.02787 6.16802 7.11698 5.93918C7.20226 5.72021 7.23508 5.4843 7.21283 5.25036C7.18957 5.00589 7.08265 4.76532 6.86881 4.28417Z" stroke="#636363" stroke-width="1.5" stroke-linecap="round"/>
</svg>
