<svg width="29" height="28" viewBox="0 0 29 28" fill="none" xmlns="http://www.w3.org/2000/svg">
    <path d="M10.5674 2.33331C7.30299 2.40792 5.39627 2.71961 4.09351 4.02182C2.95331 5.16152 2.57217 6.76366 2.44476 9.33331M17.5845 2.33331C20.8489 2.40792 22.7556 2.71961 24.0585 4.02182C25.1987 5.16152 25.5798 6.76366 25.7072 9.33331M17.5845 25.6667C20.8489 25.5921 22.7556 25.2804 24.0585 23.9782C25.1987 22.8384 25.5798 21.2364 25.7072 18.6667M10.5674 25.6667C7.30299 25.5921 5.39627 25.2804 4.09351 23.9782C2.95331 22.8384 2.57217 21.2364 2.44476 18.6667" stroke="white" stroke-width="1.3125" stroke-linecap="round" stroke-linejoin="round"/>
    <g clip-path="url(#clip0_115_2020)">
        <path d="M6.82684 14C6.82684 10.9064 6.82684 9.35961 7.89469 8.39856C8.96252 7.4375 10.6812 7.4375 14.1185 7.4375C17.5558 7.4375 19.2745 7.4375 20.3423 8.39856C21.4102 9.35961 21.4102 10.9064 21.4102 14C21.4102 17.0936 21.4102 18.6404 20.3423 19.6015C19.2745 20.5625 17.5558 20.5625 14.1185 20.5625C10.6812 20.5625 8.96252 20.5625 7.89469 19.6015C6.82684 18.6404 6.82684 17.0936 6.82684 14Z" stroke="white" stroke-width="1.3125" stroke-linecap="round" stroke-linejoin="round"/>
        <path d="M9.01434 17.2813C9.8954 15.3992 13.1795 15.2754 14.1185 17.2813M13.0248 12.1771C13.0248 12.9825 12.3718 13.6354 11.5664 13.6354C10.761 13.6354 10.1081 12.9825 10.1081 12.1771C10.1081 11.3717 10.761 10.7188 11.5664 10.7188C12.3718 10.7188 13.0248 11.3717 13.0248 12.1771Z" stroke="white" stroke-width="1.3125" stroke-linecap="round"/>
        <path d="M16.306 12.5417H19.2227" stroke="white" stroke-width="1.3125" stroke-linecap="round" stroke-linejoin="round"/>
        <path d="M16.306 15.4583H19.2227" stroke="white" stroke-width="1.3125" stroke-linecap="round" stroke-linejoin="round"/>
    </g>
    <defs>
        <clipPath id="clip0_115_2020">
            <rect width="17.5" height="17.5" fill="white" transform="translate(5.36853 5.25)"/>
        </clipPath>
    </defs>
</svg>
