<svg width="20" height="20" viewBox="0 0 20 20" fill="none" xmlns="http://www.w3.org/2000/svg">
<g clip-path="url(#clip0_124_153)">
    <path d="M10 18.3334C14.6024 18.3334 18.3334 14.6024 18.3334 10C18.3334 5.39765 14.6024 1.66669 10 1.66669C5.39765 1.66669 1.66669 5.39765 1.66669 10C1.66669 14.6024 5.39765 18.3334 10 18.3334Z" stroke="#636363" stroke-width="1.5"/>
    <path d="M8.33331 7.49998C8.33331 6.5795 9.07948 5.83331 9.99998 5.83331C10.9205 5.83331 11.6666 6.5795 11.6666 7.49998C11.6666 7.83177 11.5697 8.14092 11.4026 8.40065C10.9045 9.17473 9.99998 9.91281 9.99998 10.8333V11.25" stroke="#636363" stroke-width="1.5" stroke-linecap="round"/>
    <path d="M9.99335 14.1667H10.0008" stroke="#636363" stroke-width="2" stroke-linecap="round" stroke-linejoin="round"/>
</g>
<defs>
    <clipPath id="clip0_124_153">
        <rect width="20" height="20" fill="white"/>
    </clipPath>
</defs>
</svg>
