<svg width="20" height="20" viewBox="0 0 20 20" fill="none" xmlns="http://www.w3.org/2000/svg">
    <path d="M2.91663 7.50002V11.6667C2.91663 14.8094 2.91663 16.3808 3.89293 17.357C4.86925 18.3334 6.44059 18.3334 9.58329 18.3334H10.4166C13.5593 18.3334 15.1307 18.3334 16.107 17.357C17.0833 16.3808 17.0833 14.8094 17.0833 11.6667V8.33335C17.0833 5.19065 17.0833 3.61931 16.107 2.643C15.1307 1.66669 13.5593 1.66669 10.4166 1.66669H9.99996" stroke="#F47216" stroke-width="1.5" stroke-linecap="round" stroke-linejoin="round"/>
    <path d="M11.25 14.1667H14.5833" stroke="#F47216" stroke-width="1.5" stroke-linecap="round" stroke-linejoin="round"/>
    <path d="M11.25 5.83331H14.5833" stroke="#F47216" stroke-width="1.5" stroke-linecap="round" stroke-linejoin="round"/>
    <path d="M11.25 10H14.5833" stroke="#F47216" stroke-width="1.5" stroke-linecap="round" stroke-linejoin="round"/>
    <path d="M5.41663 13.75C5.41663 13.75 6.22294 13.9727 6.66663 15C6.66663 15 7.49996 12.5 9.16663 11.6667" stroke="#F47216" stroke-width="1.5" stroke-linecap="round" stroke-linejoin="round"/>
    <path d="M8.33329 4.16669H2.91663M8.33329 4.16669C8.33329 3.46646 6.39439 2.15822 5.90273 1.66669M8.33329 4.16669C8.33329 4.86691 6.39438 6.17515 5.90273 6.66669" stroke="#F47216" stroke-width="1.5" stroke-linecap="round" stroke-linejoin="round"/>
</svg>
