<svg width="28" height="28" viewBox="0 0 28 28" fill="none" xmlns="http://www.w3.org/2000/svg">
    <path d="M8.16666 21C6.0329 21.4803 4.66666 22.2184 4.66666 23.046C4.66666 24.4934 8.84533 25.6667 14 25.6667C19.1547 25.6667 23.3333 24.4934 23.3333 23.046C23.3333 22.2184 21.967 21.4803 19.8333 21" stroke="#F47216" stroke-width="1.5" stroke-linecap="round"/>
    <path d="M15.467 20.4092C15.0735 20.7881 14.5475 21 14.0002 21C13.4528 21 12.9269 20.7881 12.5334 20.4092C8.93003 16.9176 4.10106 13.0171 6.45601 7.35435C7.72929 4.29254 10.7858 2.33333 14.0002 2.33333C17.2146 2.33333 20.2711 4.29255 21.5444 7.35435C23.8964 13.01 19.0792 16.9296 15.467 20.4092Z" fill="#F47216"/>
    <path d="M16.9167 10.5C16.9167 12.1108 15.6108 13.4167 14 13.4167C12.3892 13.4167 11.0833 12.1108 11.0833 10.5C11.0833 8.88917 12.3892 7.58333 14 7.58333C15.6108 7.58333 16.9167 8.88917 16.9167 10.5Z" fill="white"/>
</svg>
