<svg width="20" height="20" viewBox="0 0 20 20" fill="none" xmlns="http://www.w3.org/2000/svg">
    <path d="M4.29864 9.57582C4.23741 10.7392 4.3078 11.9775 3.26844 12.757C2.7847 13.1198 2.5 13.6892 2.5 14.2939C2.5 15.1257 3.1515 15.8333 4 15.8333H16C16.8485 15.8333 17.5 15.1257 17.5 14.2939C17.5 13.6892 17.2153 13.1198 16.7316 12.757C15.6922 11.9775 15.7626 10.7392 15.7013 9.57582C15.5418 6.54351 13.0365 4.16666 10 4.16666C6.96347 4.16666 4.45823 6.54351 4.29864 9.57582Z" stroke="#F47216" stroke-width="1.5" stroke-linecap="round" stroke-linejoin="round"/>
    <path d="M8.75 2.60416C8.75 3.29451 9.30967 4.16666 10 4.16666C10.6903 4.16666 11.25 3.29451 11.25 2.60416C11.25 1.9138 10.6903 1.66666 10 1.66666C9.30967 1.66666 8.75 1.9138 8.75 2.60416Z" stroke="#F47216" stroke-width="1.5"/>
    <path d="M12.5 15.8333C12.5 17.2141 11.3807 18.3333 10 18.3333C8.61925 18.3333 7.5 17.2141 7.5 15.8333" stroke="#F47216" stroke-width="1.5" stroke-linecap="round" stroke-linejoin="round"/>
</svg>
