<svg width="20" height="20" viewBox="0 0 20 20" fill="none" xmlns="http://www.w3.org/2000/svg">
    <path d="M2.10825 11.995C1.93104 13.1226 2.72331 13.9052 3.69336 14.2952C7.41232 15.7905 12.5876 15.7905 16.3066 14.2952C17.2766 13.9052 18.0689 13.1226 17.8917 11.995C17.7828 11.3021 17.2443 10.7251 16.8453 10.1617C16.3227 9.41459 16.2708 8.59976 16.2707 7.73285C16.2707 4.38259 13.4632 1.66667 9.99998 1.66667C6.53676 1.66667 3.72926 4.38259 3.72926 7.73285C3.72917 8.59976 3.67725 9.41459 3.15466 10.1617C2.75568 10.7251 2.21716 11.3021 2.10825 11.995Z" stroke="black" stroke-width="1.5" stroke-linecap="round" stroke-linejoin="round"/>
    <path d="M7.5 17.5C8.16344 18.0183 9.03958 18.3333 10 18.3333C10.9604 18.3333 11.8366 18.0183 12.5 17.5" stroke="black" stroke-width="1.5" stroke-linecap="round" stroke-linejoin="round"/>
</svg>
