<svg width="25" height="24" viewBox="0 0 25 24" fill="none" xmlns="http://www.w3.org/2000/svg">
<path d="M17.2492 7V11C17.2492 13.7614 15.0174 16 12.2644 16C9.51138 16 7.2796 13.7614 7.2796 11V7C7.2796 4.23858 9.51138 2 12.2644 2C15.0174 2 17.2492 4.23858 17.2492 7Z" stroke="#F47216" stroke-width="1.5"/>
<path d="M17.2492 7H14.2584M17.2492 11H14.2584" stroke="#F47216" stroke-width="1.5" stroke-linecap="round"/>
<path d="M20.2401 11C20.2401 15.4183 16.6693 19 12.2644 19M12.2644 19C7.85959 19 4.28876 15.4183 4.28876 11M12.2644 19V22M12.2644 22H15.2553M12.2644 22H9.27356" stroke="#F47216" stroke-width="1.5" stroke-linecap="round"/>
</svg>
